<svg xmlns="http://www.w3.org/2000/svg" viewBox="0 0 32 32" fill="none">
  <rect width="32" height="32" rx="8" fill="#030508"/>
  <!-- Y -->
  <path
    d="M7.2 8.2h2.6l2.1 4.4 2.1-4.4h2.6l-3.6 7V24H10.8v-8.8L7.2 8.2z"
    fill="#22d3ee"
  />
  <!-- S -->
  <path
    d="M24.8 11.2c0-1.9-1.5-3.1-3.7-3.1-2.1 0-3.6 1.1-3.9 2.8l2.2.6c.2-.8.9-1.4 1.8-1.4.8 0 1.3.4 1.3 1 0 .6-.4.9-1.6 1.2l-1.1.3c-2 .5-3.1 1.5-3.1 3.4 0 2.1 1.6 3.4 3.9 3.4 2.2 0 3.8-1.2 4.1-3l-2.2-.5c-.2.9-.9 1.5-1.9 1.5-.9 0-1.4-.4-1.4-1.1 0-.6.4-1 1.5-1.3l1.2-.3c2.1-.5 3.3-1.6 3.3-3.5z"
    fill="#67e8f9"
  />
</svg>
